# 3ds Max Wavefront OBJ Exporter v0.97b - (c)2007 guruware
# File Created: 01.12.2015 23:11:02

mtllib softbox.mtl

#
# object ChamferBox01
#

v  -0.9213 0.9843 -0.9213
v  -0.9213 0.9843 0.9213
v  0.9213 0.9843 0.9213
v  0.9213 0.9843 -0.9213
v  -0.9213 0.9758 -0.9528
v  -0.9370 0.9758 -0.9485
v  -0.9485 0.9758 -0.9370
v  -0.9528 0.9758 -0.9213
v  -0.9528 0.9758 0.9213
v  -0.9485 0.9758 0.9370
v  -0.9370 0.9758 0.9485
v  -0.9213 0.9758 0.9528
v  0.9213 0.9758 0.9528
v  0.9370 0.9758 0.9485
v  0.9485 0.9758 0.9370
v  0.9528 0.9758 0.9213
v  0.9528 0.9758 -0.9213
v  0.9485 0.9758 -0.9370
v  0.9370 0.9758 -0.9485
v  0.9213 0.9758 -0.9528
v  -0.9213 0.9528 -0.9758
v  -0.9485 0.9528 -0.9685
v  -0.9685 0.9528 -0.9485
v  -0.9758 0.9528 -0.9213
v  -0.9758 0.9528 0.9213
v  -0.9685 0.9528 0.9485
v  -0.9485 0.9528 0.9685
v  -0.9213 0.9528 0.9758
v  0.9213 0.9528 0.9758
v  0.9485 0.9528 0.9685
v  0.9685 0.9528 0.9485
v  0.9758 0.9528 0.9213
v  0.9758 0.9528 -0.9213
v  0.9685 0.9528 -0.9485
v  0.9485 0.9528 -0.9685
v  0.9213 0.9528 -0.9758
v  -0.9213 0.9213 -0.9843
v  -0.9528 0.9213 -0.9758
v  -0.9758 0.9213 -0.9528
v  -0.9843 0.9213 -0.9213
v  -0.9843 0.9213 0.9213
v  -0.9758 0.9213 0.9528
v  -0.9528 0.9213 0.9758
v  -0.9213 0.9213 0.9843
v  0.9213 0.9213 0.9843
v  0.9528 0.9213 0.9758
v  0.9758 0.9213 0.9528
v  0.9843 0.9213 0.9213
v  0.9843 0.9213 -0.9213
v  0.9758 0.9213 -0.9528
v  0.9528 0.9213 -0.9758
v  0.9213 0.9213 -0.9843
v  -0.9213 -0.9213 -0.9843
v  -0.9528 -0.9213 -0.9758
v  -0.9758 -0.9213 -0.9528
v  -0.9843 -0.9213 -0.9213
v  -0.9843 -0.9213 0.9213
v  -0.9758 -0.9213 0.9528
v  -0.9528 -0.9213 0.9758
v  -0.9213 -0.9213 0.9843
v  0.9213 -0.9213 0.9843
v  0.9528 -0.9213 0.9758
v  0.9758 -0.9213 0.9528
v  0.9843 -0.9213 0.9213
v  0.9843 -0.9213 -0.9213
v  0.9758 -0.9213 -0.9528
v  0.9528 -0.9213 -0.9758
v  0.9213 -0.9213 -0.9843
v  -0.9213 -0.9528 -0.9758
v  -0.9485 -0.9528 -0.9685
v  -0.9685 -0.9528 -0.9485
v  -0.9758 -0.9528 -0.9213
v  -0.9758 -0.9528 0.9213
v  -0.9685 -0.9528 0.9485
v  -0.9485 -0.9528 0.9685
v  -0.9213 -0.9528 0.9758
v  0.9213 -0.9528 0.9758
v  0.9485 -0.9528 0.9685
v  0.9685 -0.9528 0.9485
v  0.9758 -0.9528 0.9213
v  0.9758 -0.9528 -0.9213
v  0.9685 -0.9528 -0.9485
v  0.9485 -0.9528 -0.9685
v  0.9213 -0.9528 -0.9758
v  -0.9213 -0.9758 -0.9528
v  -0.9370 -0.9758 -0.9485
v  -0.9485 -0.9758 -0.9370
v  -0.9528 -0.9758 -0.9213
v  -0.9528 -0.9758 0.9213
v  -0.9485 -0.9758 0.9370
v  -0.9370 -0.9758 0.9485
v  -0.9213 -0.9758 0.9528
v  0.9213 -0.9758 0.9528
v  0.9370 -0.9758 0.9485
v  0.9485 -0.9758 0.9370
v  0.9528 -0.9758 0.9213
v  0.9528 -0.9758 -0.9213
v  0.9485 -0.9758 -0.9370
v  0.9370 -0.9758 -0.9485
v  0.9213 -0.9758 -0.9528
v  -0.9213 -0.9843 -0.9213
v  -0.9213 -0.9843 0.9213
v  0.9213 -0.9843 0.9213
v  0.9213 -0.9843 -0.9213
# 104 vertices

vn -0.1087 0.9881 -0.1087
vn -0.1087 0.9881 0.1087
vn 0.1087 0.9881 0.1087
vn 0.1087 0.9881 -0.1087
vn -0.0698 0.8549 -0.5140
vn -0.2654 0.8474 -0.4598
vn -0.4598 0.8474 -0.2654
vn -0.5140 0.8549 -0.0698
vn -0.5140 0.8549 0.0698
vn -0.4598 0.8474 0.2654
vn -0.2654 0.8474 0.4598
vn -0.0698 0.8549 0.5140
vn 0.0698 0.8549 0.5140
vn 0.2654 0.8474 0.4598
vn 0.4598 0.8474 0.2654
vn 0.5140 0.8549 0.0698
vn 0.5140 0.8549 -0.0698
vn 0.4598 0.8474 -0.2654
vn 0.2654 0.8474 -0.4598
vn 0.0698 0.8549 -0.5140
vn -0.1129 0.4883 -0.8653
vn -0.4380 0.4823 -0.7586
vn -0.7586 0.4823 -0.4380
vn -0.8653 0.4883 -0.1129
vn -0.8653 0.4883 0.1129
vn -0.7586 0.4823 0.4380
vn -0.4380 0.4823 0.7586
vn -0.1129 0.4883 0.8653
vn 0.1129 0.4883 0.8653
vn 0.4380 0.4823 0.7586
vn 0.7586 0.4823 0.4380
vn 0.8653 0.4883 0.1129
vn 0.8653 0.4883 -0.1129
vn 0.7586 0.4823 -0.4380
vn 0.4380 0.4823 -0.7586
vn 0.1129 0.4883 -0.8653
vn -0.1281 0.1281 -0.9834
vn -0.4959 0.1278 -0.8589
vn -0.8589 0.1278 -0.4959
vn -0.9834 0.1281 -0.1281
vn -0.9834 0.1281 0.1281
vn -0.8589 0.1278 0.4959
vn -0.4959 0.1278 0.8589
vn -0.1281 0.1281 0.9834
vn 0.1281 0.1281 0.9834
vn 0.4959 0.1278 0.8589
vn 0.8589 0.1278 0.4959
vn 0.9834 0.1281 0.1281
vn 0.9834 0.1281 -0.1281
vn 0.8589 0.1278 -0.4959
vn 0.4959 0.1278 -0.8589
vn 0.1281 0.1281 -0.9834
vn -0.1281 -0.1281 -0.9834
vn -0.4959 -0.1278 -0.8589
vn -0.8589 -0.1278 -0.4959
vn -0.9834 -0.1281 -0.1281
vn -0.9834 -0.1281 0.1281
vn -0.8589 -0.1278 0.4959
vn -0.4959 -0.1278 0.8589
vn -0.1281 -0.1281 0.9834
vn 0.1281 -0.1281 0.9834
vn 0.4959 -0.1278 0.8589
vn 0.8589 -0.1278 0.4959
vn 0.9834 -0.1281 0.1281
vn 0.9834 -0.1281 -0.1281
vn 0.8589 -0.1278 -0.4959
vn 0.4959 -0.1278 -0.8589
vn 0.1281 -0.1281 -0.9834
vn -0.1129 -0.4883 -0.8653
vn -0.4380 -0.4823 -0.7586
vn -0.7586 -0.4823 -0.4380
vn -0.8653 -0.4883 -0.1129
vn -0.8653 -0.4883 0.1129
vn -0.7586 -0.4823 0.4380
vn -0.4380 -0.4823 0.7586
vn -0.1129 -0.4883 0.8653
vn 0.1129 -0.4883 0.8653
vn 0.4380 -0.4823 0.7586
vn 0.7586 -0.4823 0.4380
vn 0.8653 -0.4883 0.1129
vn 0.8653 -0.4883 -0.1129
vn 0.7586 -0.4823 -0.4380
vn 0.4380 -0.4823 -0.7586
vn 0.1129 -0.4883 -0.8653
vn -0.0698 -0.8549 -0.5140
vn -0.2654 -0.8474 -0.4598
vn -0.4598 -0.8474 -0.2654
vn -0.5140 -0.8549 -0.0698
vn -0.5140 -0.8549 0.0698
vn -0.4598 -0.8474 0.2654
vn -0.2654 -0.8474 0.4598
vn -0.0698 -0.8549 0.5140
vn 0.0698 -0.8549 0.5140
vn 0.2654 -0.8474 0.4598
vn 0.4598 -0.8474 0.2654
vn 0.5140 -0.8549 0.0698
vn 0.5140 -0.8549 -0.0698
vn 0.4598 -0.8474 -0.2654
vn 0.2654 -0.8474 -0.4598
vn 0.0698 -0.8549 -0.5140
vn -0.1087 -0.9881 -0.1087
vn -0.1087 -0.9881 0.1087
vn 0.1087 -0.9881 0.1087
vn 0.1087 -0.9881 -0.1087
# 104 vertex normals

vt 0.0325 0.9675 0.9995
vt 0.0325 0.0325 0.9995
vt 0.9675 0.0325 0.9995
vt 0.9675 0.9675 0.9995
vt 0.0325 0.9835 0.9952
vt 0.0245 0.9814 0.9952
vt 0.0186 0.9755 0.9952
vt 0.0165 0.9675 0.9952
vt 0.0165 0.0325 0.9952
vt 0.0186 0.0245 0.9952
vt 0.0245 0.0186 0.9952
vt 0.0325 0.0165 0.9952
vt 0.9675 0.0165 0.9952
vt 0.9755 0.0186 0.9952
vt 0.9814 0.0245 0.9952
vt 0.9835 0.0325 0.9952
vt 0.9835 0.9675 0.9952
vt 0.9814 0.9755 0.9952
vt 0.9755 0.9814 0.9952
vt 0.9675 0.9835 0.9952
vt 0.0325 0.9952 0.9835
vt 0.0186 0.9915 0.9835
vt 0.0085 0.9814 0.9835
vt 0.0245 0.9952 0.0186
vt 0.0186 0.9835 0.0085
vt 0.0325 0.9835 0.0048
vt 0.0325 0.9952 0.0165
vt 0.0048 0.9675 0.9835
vt 0.0048 0.0325 0.9835
vt 0.0085 0.0186 0.9835
vt 0.0186 0.0085 0.9835
vt 0.0325 0.0048 0.9835
vt 0.9675 0.0048 0.9835
vt 0.9814 0.0085 0.9835
vt 0.9915 0.0186 0.9835
vt 0.0245 0.9952 0.9814
vt 0.0186 0.9835 0.9915
vt 0.9952 0.0325 0.9835
vt 0.9952 0.9675 0.9835
vt 0.9915 0.9814 0.9835
vt 0.9814 0.9915 0.9835
vt 0.9675 0.9952 0.9835
vt 0.9814 0.9835 0.9915
vt 0.9915 0.9835 0.9814
vt 0.0165 0.9675 0.0048
vt 0.0325 0.9675 0.0005
vt 0.9675 0.9675 0.0005
vt 0.9675 0.9835 0.0048
vt 0.9835 0.9675 0.0048
vt 0.9814 0.9835 0.0085
vt 0.9952 0.9675 0.0165
vt 0.9915 0.9835 0.0186
vt 0.0165 0.0325 0.0048
vt 0.0325 0.0325 0.0005
vt 0.9675 0.0325 0.0005
vt 0.9835 0.0325 0.0048
vt 0.9952 0.0325 0.0165
vt 0.9814 0.0165 0.9915
vt 0.9915 0.0165 0.9814
vt 0.0186 0.0165 0.0085
vt 0.0325 0.0165 0.0048
vt 0.9675 0.0165 0.0048
vt 0.9814 0.0165 0.0085
vt 0.9915 0.0165 0.0186
vt 0.0186 0.0165 0.9915
vt 0.9675 0.9952 0.0165
vt 0.9755 0.9814 0.0048
vt 0.9814 0.9915 0.0165
vt 0.9814 0.9755 0.0048
vt 0.9915 0.9814 0.0165
vt 0.9814 0.0245 0.0048
vt 0.9915 0.0186 0.0165
vt 0.9755 0.0186 0.0048
vt 0.9814 0.0085 0.0165
vt 0.9675 0.0048 0.0165
vt 0.0325 0.0048 0.0165
vt 0.0245 0.0186 0.0048
vt 0.0186 0.0085 0.0165
vt 0.0186 0.0245 0.0048
vt 0.0085 0.0186 0.0165
vt 0.0048 0.0325 0.0165
vt 0.0048 0.9675 0.0165
vt 0.0186 0.9755 0.0048
vt 0.0085 0.9814 0.0165
vt 0.0245 0.9814 0.0048
vt 0.0186 0.9915 0.0165
# 86 texture coords

g ChamferBox01
usemtl wire_225088199
s 1
f 1/1/1 2/2/2 3/3/3 4/4/4 
f 1/1/1 5/5/5 6/6/6 
f 1/1/1 6/6/6 7/7/7 
f 1/1/1 7/7/7 8/8/8 
f 1/1/1 8/8/8 9/9/9 2/2/2 
f 2/2/2 9/9/9 10/10/10 
f 2/2/2 10/10/10 11/11/11 
f 2/2/2 11/11/11 12/12/12 
f 2/2/2 12/12/12 13/13/13 3/3/3 
f 3/3/3 13/13/13 14/14/14 
f 3/3/3 14/14/14 15/15/15 
f 3/3/3 15/15/15 16/16/16 
f 3/3/3 16/16/16 17/17/17 4/4/4 
f 4/4/4 17/17/17 18/18/18 
f 4/4/4 18/18/18 19/19/19 
f 4/4/4 19/19/19 20/20/20 
f 4/4/4 20/20/20 5/5/5 1/1/1 
f 5/5/5 21/21/21 22/22/22 6/6/6 
f 6/6/6 22/22/22 23/23/23 7/7/7 
f 7/24/7 23/25/23 24/26/24 8/27/8 
f 8/8/8 24/28/24 25/29/25 9/9/9 
f 9/9/9 25/29/25 26/30/26 10/10/10 
f 10/10/10 26/30/26 27/31/27 11/11/11 
f 11/24/11 27/25/27 28/26/28 12/27/12 
f 12/12/12 28/32/28 29/33/29 13/13/13 
f 13/13/13 29/33/29 30/34/30 14/14/14 
f 14/14/14 30/34/30 31/35/31 15/15/15 
f 15/36/15 31/37/31 32/5/32 16/21/16 
f 16/16/16 32/38/32 33/39/33 17/17/17 
f 17/17/17 33/39/33 34/40/34 18/18/18 
f 18/18/18 34/40/34 35/41/35 19/19/19 
f 19/36/19 35/37/35 36/5/36 20/21/20 
f 20/20/20 36/42/36 21/21/21 5/5/5 
f 21/20/21 37/4/37 38/17/38 22/43/22 
f 22/43/22 38/17/38 39/39/39 23/44/23 
f 23/25/23 39/45/39 40/46/40 24/26/24 
f 24/26/24 40/46/40 41/47/41 25/48/25 
f 25/48/25 41/47/41 42/49/42 26/50/26 
f 26/50/26 42/49/42 43/51/43 27/52/27 
f 27/25/27 43/45/43 44/46/44 28/26/28 
f 28/26/28 44/46/44 45/47/45 29/48/29 
f 29/48/29 45/47/45 46/49/46 30/50/30 
f 30/50/30 46/49/46 47/51/47 31/52/31 
f 31/37/31 47/8/47 48/1/48 32/5/32 
f 32/5/32 48/1/48 49/4/49 33/20/33 
f 33/20/33 49/4/49 50/17/50 34/43/34 
f 34/43/34 50/17/50 51/39/51 35/44/35 
f 35/37/35 51/8/51 52/1/52 36/5/36 
f 36/5/36 52/1/52 37/4/37 21/20/21 
f 37/4/37 53/3/53 54/16/54 38/17/38 
f 38/17/38 54/16/54 55/38/55 39/39/39 
f 39/45/39 55/53/55 56/54/56 40/46/40 
f 40/46/40 56/54/56 57/55/57 41/47/41 
f 41/47/41 57/55/57 58/56/58 42/49/42 
f 42/49/42 58/56/58 59/57/59 43/51/43 
f 43/45/43 59/53/59 60/54/60 44/46/44 
f 44/46/44 60/54/60 61/55/61 45/47/45 
f 45/47/45 61/55/61 62/56/62 46/49/46 
f 46/49/46 62/56/62 63/57/63 47/51/47 
f 47/8/47 63/9/63 64/2/64 48/1/48 
f 48/1/48 64/2/64 65/3/65 49/4/49 
f 49/4/49 65/3/65 66/16/66 50/17/50 
f 50/17/50 66/16/66 67/38/67 51/39/51 
f 51/8/51 67/9/67 68/2/68 52/1/52 
f 52/1/52 68/2/68 53/3/53 37/4/37 
f 53/3/53 69/13/69 70/58/70 54/16/54 
f 54/16/54 70/58/70 71/59/71 55/38/55 
f 55/53/55 71/60/71 72/61/72 56/54/56 
f 56/54/56 72/61/72 73/62/73 57/55/57 
f 57/55/57 73/62/73 74/63/74 58/56/58 
f 58/56/58 74/63/74 75/64/75 59/57/59 
f 59/53/59 75/60/75 76/61/76 60/54/60 
f 60/54/60 76/61/76 77/62/77 61/55/61 
f 61/55/61 77/62/77 78/63/78 62/56/62 
f 62/56/62 78/63/78 79/64/79 63/57/63 
f 63/9/63 79/65/79 80/12/80 64/2/64 
f 64/2/64 80/12/80 81/13/81 65/3/65 
f 65/3/65 81/13/81 82/58/82 66/16/66 
f 66/16/66 82/58/82 83/59/83 67/38/67 
f 67/9/67 83/65/83 84/12/84 68/2/68 
f 68/2/68 84/12/84 69/13/69 53/3/53 
f 69/66/69 85/48/85 86/67/86 70/68/70 
f 70/68/70 86/67/86 87/69/87 71/70/71 
f 71/70/71 87/69/87 88/49/88 72/51/72 
f 72/51/72 88/49/88 89/56/89 73/57/73 
f 73/57/73 89/56/89 90/71/90 74/72/74 
f 74/72/74 90/71/90 91/73/91 75/74/75 
f 75/74/75 91/73/91 92/62/92 76/75/76 
f 76/75/76 92/62/92 93/61/93 77/76/77 
f 77/76/77 93/61/93 94/77/94 78/78/78 
f 78/78/78 94/77/94 95/79/95 79/80/79 
f 79/80/79 95/79/95 96/53/96 80/81/80 
f 80/81/80 96/53/96 97/45/97 81/82/81 
f 81/82/81 97/45/97 98/83/98 82/84/82 
f 82/84/82 98/83/98 99/85/99 83/86/83 
f 83/86/83 99/85/99 100/26/100 84/27/84 
f 84/27/84 100/26/100 85/48/85 69/66/69 
f 85/48/85 101/47/101 86/67/86 
f 86/67/86 101/47/101 87/69/87 
f 87/69/87 101/47/101 88/49/88 
f 88/49/88 101/47/101 102/55/102 89/56/89 
f 89/56/89 102/55/102 90/71/90 
f 90/71/90 102/55/102 91/73/91 
f 91/73/91 102/55/102 92/62/92 
f 92/62/92 102/55/102 103/54/103 93/61/93 
f 93/61/93 103/54/103 94/77/94 
f 94/77/94 103/54/103 95/79/95 
f 95/79/95 103/54/103 96/53/96 
f 96/53/96 103/54/103 104/46/104 97/45/97 
f 97/45/97 104/46/104 98/83/98 
f 98/83/98 104/46/104 99/85/99 
f 99/85/99 104/46/104 100/26/100 
f 100/26/100 104/46/104 101/47/101 85/48/85 
f 104/46/104 103/54/103 102/55/102 101/47/101 
# 90 polygons - 24 triangles

